<?xml version="1.0" standalone="no"?>
<!DOCTYPE svg PUBLIC "-//W3C//DTD SVG 20010904//EN"
 "http://www.w3.org/TR/2001/REC-SVG-20010904/DTD/svg10.dtd">
<svg version="1.0" xmlns="http://www.w3.org/2000/svg"
 width="600.000000pt" height="600.000000pt" viewBox="0 0 600.000000 600.000000"
 preserveAspectRatio="xMidYMid meet">
<metadata>
Created by potrace 1.11, written by Peter Selinger 2001-2013
</metadata>
<g transform="translate(0.000000,600.000000) scale(0.100000,-0.100000)"
fill="#000000" stroke="none">
<path d="M1850 5977 c0 -34 57 -544 111 -982 261 -2157 528 -3515 789 -4013
165 -317 335 -317 500 0 282 540 570 2080 855 4570 47 411 51 458 37 443 -5
-6 -26 -163 -46 -350 -184 -1671 -407 -3103 -607 -3900 -161 -643 -331 -985
-489 -985 -105 0 -220 157 -328 450 -254 683 -530 2279 -768 4435 -20 187 -41
344 -46 350 -4 5 -8 -3 -8 -18z"/>
<path d="M2764 5843 c3 -10 8 -36 12 -57 6 -34 4 -41 -17 -57 -18 -14 -20 -19
-8 -19 9 0 23 8 31 18 26 30 79 132 68 132 -5 0 -20 -19 -32 -42 l-22 -43 -8
43 c-5 23 -14 42 -19 42 -6 0 -8 -8 -5 -17z"/>
<path d="M2911 3591 c-7 -5 -9 -10 -3 -12 15 -6 2 -67 -17 -72 -9 -3 0 -5 19
-6 22 0 30 2 22 7 -9 6 -11 21 -6 50 7 45 6 46 -15 33z"/>
<path d="M5770 2857 c0 -5 5 -17 11 -29 9 -16 7 -24 -12 -44 -12 -13 -20 -27
-16 -30 4 -4 15 4 25 16 l19 24 12 -22 c6 -12 16 -22 22 -22 5 0 3 12 -5 27
-13 25 -12 30 6 55 11 16 15 28 9 28 -6 0 -16 -10 -22 -22 l-11 -21 -19 24
c-10 13 -19 20 -19 16z"/>
<path d="M2895 2826 c-22 -33 -13 -76 15 -76 24 0 42 32 38 68 -4 36 -32 40
-53 8z m42 -2 c3 -8 1 -26 -5 -40 -22 -46 -51 -20 -33 29 12 30 29 35 38 11z"/>
<path d="M3539 2843 c-1 -5 -1 -12 0 -17 5 -23 -12 -65 -27 -69 -9 -3 1 -5 23
-5 22 0 32 2 23 5 -9 2 -15 10 -13 16 11 36 13 77 5 77 -6 0 -11 -3 -11 -7z"/>
</g>
</svg>
